<svg width="43" height="9" viewBox="0 0 43 9" fill="none" xmlns="http://www.w3.org/2000/svg">
<path d="M11.467 8.60803C11.3863 8.57136 11.3093 8.5457 11.236 8.53103C11.17 8.51636 11.104 8.5017 11.038 8.48703C10.9207 8.46503 10.7997 8.43203 10.675 8.38803C10.5577 8.3367 10.4477 8.2377 10.345 8.09103C10.301 8.03236 10.2533 7.8857 10.202 7.65103C10.1507 7.40903 10.0993 7.1157 10.048 6.77103C9.99667 6.41903 9.94533 6.03036 9.894 5.60503C9.84267 5.17236 9.79133 4.73236 9.74 4.28503C9.696 3.83036 9.652 3.38303 9.608 2.94303C9.57133 2.50303 9.53467 2.0997 9.498 1.73303C9.48333 1.5717 9.465 1.4067 9.443 1.23803C9.42833 1.06936 9.41367 0.915364 9.399 0.776031C9.39167 0.636698 9.38433 0.523031 9.377 0.435031C9.36967 0.347031 9.366 0.303031 9.366 0.303031L9.289 0.281031C9.289 0.281031 9.24867 0.347031 9.168 0.479031C9.09467 0.611031 9.00667 0.776031 8.904 0.974031C8.80133 1.1647 8.69133 1.36636 8.574 1.57903C8.464 1.78436 8.376 1.96403 8.31 2.11803C8.27333 2.20603 8.233 2.29403 8.189 2.38203C8.15233 2.47003 8.112 2.55803 8.068 2.64603C7.90667 2.97603 7.749 3.3097 7.595 3.64703C7.44833 3.97703 7.298 4.30703 7.144 4.63703C6.95333 5.06236 6.76267 5.49503 6.572 5.93503C6.38133 6.3677 6.18333 6.7967 5.978 7.22203C5.88267 7.0387 5.758 6.76736 5.604 6.40803C5.45733 6.0487 5.29233 5.6747 5.109 5.28603C4.955 4.9707 4.78267 4.6297 4.592 4.26303C4.40867 3.88903 4.218 3.5187 4.02 3.15203C3.82933 2.77803 3.63867 2.4187 3.448 2.07403C3.26467 1.72203 3.09967 1.41403 2.953 1.15003C2.81367 0.886031 2.7 0.673364 2.612 0.512031C2.524 0.350698 2.48 0.270031 2.48 0.270031L2.403 0.292031C2.403 0.292031 2.39567 0.339697 2.381 0.435031C2.37367 0.523031 2.36267 0.640364 2.348 0.787031C2.33333 0.926364 2.315 1.08403 2.293 1.26003C2.27833 1.43603 2.26 1.61203 2.238 1.78803C2.194 2.16936 2.15 2.59103 2.106 3.05303C2.062 3.5077 2.01433 3.9697 1.963 4.43903C1.91167 4.90836 1.86033 5.3667 1.809 5.81403C1.75767 6.26136 1.71 6.66103 1.666 7.01303C1.622 7.36503 1.58167 7.65836 1.545 7.89303C1.50833 8.12036 1.479 8.2487 1.457 8.27803C1.37633 8.39536 1.29567 8.4687 1.215 8.49803C1.13433 8.52736 1.03533 8.54936 0.918 8.56403C0.896 8.57136 0.870333 8.57503 0.841 8.57503C0.819 8.57503 0.797 8.5787 0.775 8.58603C0.753 8.59336 0.745667 8.6117 0.753 8.64103C0.760333 8.67036 0.775 8.68136 0.797 8.67403C0.899667 8.65936 0.998667 8.65203 1.094 8.65203C1.19667 8.6447 1.29933 8.64103 1.402 8.64103C1.67333 8.64103 1.94833 8.65203 2.227 8.67403C2.49833 8.69603 2.77333 8.70703 3.052 8.70703C3.074 8.70703 3.08867 8.69603 3.096 8.67403C3.10333 8.65203 3.096 8.6337 3.074 8.61903C3.02267 8.59703 2.97133 8.5787 2.92 8.56403C2.86867 8.54203 2.821 8.5237 2.777 8.50903C2.63767 8.4577 2.524 8.4027 2.436 8.34403C2.348 8.27803 2.304 8.14603 2.304 7.94803C2.304 7.31736 2.33333 6.68303 2.392 6.04503C2.45067 5.3997 2.52033 4.76903 2.601 4.15303C2.63033 3.9037 2.65967 3.6617 2.689 3.42703C2.71833 3.18503 2.744 2.9357 2.766 2.67903C2.942 3.00903 3.096 3.3207 3.228 3.61403C3.36 3.90736 3.503 4.22636 3.657 4.57103C3.95767 5.2457 4.273 5.9387 4.603 6.65003C4.94033 7.35403 5.34 8.02136 5.802 8.65203C5.81667 8.6667 5.83133 8.67403 5.846 8.67403C5.86067 8.67403 5.87167 8.6667 5.879 8.65203C6.01833 8.36603 6.154 8.08003 6.286 7.79403C6.42533 7.50803 6.561 7.22203 6.693 6.93603C7.03033 6.2247 7.364 5.50236 7.694 4.76903C8.024 4.0357 8.37233 3.32436 8.739 2.63503C8.76833 2.9797 8.79767 3.2987 8.827 3.59203C8.86367 3.88536 8.904 4.20436 8.948 4.54903V4.53803C9.014 5.08803 9.07267 5.66003 9.124 6.25403C9.18267 6.8407 9.212 7.4127 9.212 7.97003C9.212 8.0507 9.19733 8.13503 9.168 8.22303C9.13867 8.3037 9.10933 8.38803 9.08 8.47603C9.07267 8.49803 9.06533 8.52003 9.058 8.54203C9.05067 8.56403 9.04333 8.58603 9.036 8.60803C9.02133 8.6447 9.036 8.66303 9.08 8.66303C9.476 8.6777 9.872 8.6887 10.268 8.69603C10.664 8.69603 11.06 8.69603 11.456 8.69603L11.467 8.60803ZM22.6711 8.60803C22.5904 8.57136 22.5134 8.5457 22.4401 8.53103C22.3741 8.51636 22.3081 8.5017 22.2421 8.48703C22.1248 8.46503 22.0038 8.43203 21.8791 8.38803C21.7618 8.3367 21.6518 8.2377 21.5491 8.09103C21.5051 8.03236 21.4574 7.8857 21.4061 7.65103C21.3548 7.40903 21.3034 7.1157 21.2521 6.77103C21.2008 6.41903 21.1494 6.03036 21.0981 5.60503C21.0468 5.17236 20.9954 4.73236 20.9441 4.28503C20.9001 3.83036 20.8561 3.38303 20.8121 2.94303C20.7754 2.50303 20.7388 2.0997 20.7021 1.73303C20.6874 1.5717 20.6691 1.4067 20.6471 1.23803C20.6324 1.06936 20.6178 0.915364 20.6031 0.776031C20.5958 0.636698 20.5884 0.523031 20.5811 0.435031C20.5738 0.347031 20.5701 0.303031 20.5701 0.303031L20.4931 0.281031C20.4931 0.281031 20.4528 0.347031 20.3721 0.479031C20.2988 0.611031 20.2108 0.776031 20.1081 0.974031C20.0054 1.1647 19.8954 1.36636 19.7781 1.57903C19.6681 1.78436 19.5801 1.96403 19.5141 2.11803C19.4774 2.20603 19.4371 2.29403 19.3931 2.38203C19.3564 2.47003 19.3161 2.55803 19.2721 2.64603C19.1108 2.97603 18.9531 3.3097 18.7991 3.64703C18.6524 3.97703 18.5021 4.30703 18.3481 4.63703C18.1574 5.06236 17.9668 5.49503 17.7761 5.93503C17.5854 6.3677 17.3874 6.7967 17.1821 7.22203C17.0868 7.0387 16.9621 6.76736 16.8081 6.40803C16.6614 6.0487 16.4964 5.6747 16.3131 5.28603C16.1591 4.9707 15.9868 4.6297 15.7961 4.26303C15.6128 3.88903 15.4221 3.5187 15.2241 3.15203C15.0334 2.77803 14.8428 2.4187 14.6521 2.07403C14.4688 1.72203 14.3038 1.41403 14.1571 1.15003C14.0178 0.886031 13.9041 0.673364 13.8161 0.512031C13.7281 0.350698 13.6841 0.270031 13.6841 0.270031L13.6071 0.292031C13.6071 0.292031 13.5998 0.339697 13.5851 0.435031C13.5778 0.523031 13.5668 0.640364 13.5521 0.787031C13.5374 0.926364 13.5191 1.08403 13.4971 1.26003C13.4824 1.43603 13.4641 1.61203 13.4421 1.78803C13.3981 2.16936 13.3541 2.59103 13.3101 3.05303C13.2661 3.5077 13.2184 3.9697 13.1671 4.43903C13.1158 4.90836 13.0644 5.3667 13.0131 5.81403C12.9618 6.26136 12.9141 6.66103 12.8701 7.01303C12.8261 7.36503 12.7858 7.65836 12.7491 7.89303C12.7124 8.12036 12.6831 8.2487 12.6611 8.27803C12.5804 8.39536 12.4998 8.4687 12.4191 8.49803C12.3384 8.52736 12.2394 8.54936 12.1221 8.56403C12.1001 8.57136 12.0744 8.57503 12.0451 8.57503C12.0231 8.57503 12.0011 8.5787 11.9791 8.58603C11.9571 8.59336 11.9498 8.6117 11.9571 8.64103C11.9644 8.67036 11.9791 8.68136 12.0011 8.67403C12.1038 8.65936 12.2028 8.65203 12.2981 8.65203C12.4008 8.6447 12.5034 8.64103 12.6061 8.64103C12.8774 8.64103 13.1524 8.65203 13.4311 8.67403C13.7024 8.69603 13.9774 8.70703 14.2561 8.70703C14.2781 8.70703 14.2928 8.69603 14.3001 8.67403C14.3074 8.65203 14.3001 8.6337 14.2781 8.61903C14.2268 8.59703 14.1754 8.5787 14.1241 8.56403C14.0728 8.54203 14.0251 8.5237 13.9811 8.50903C13.8418 8.4577 13.7281 8.4027 13.6401 8.34403C13.5521 8.27803 13.5081 8.14603 13.5081 7.94803C13.5081 7.31736 13.5374 6.68303 13.5961 6.04503C13.6548 5.3997 13.7244 4.76903 13.8051 4.15303C13.8344 3.9037 13.8638 3.6617 13.8931 3.42703C13.9224 3.18503 13.9481 2.9357 13.9701 2.67903C14.1461 3.00903 14.3001 3.3207 14.4321 3.61403C14.5641 3.90736 14.7071 4.22636 14.8611 4.57103C15.1618 5.2457 15.4771 5.9387 15.8071 6.65003C16.1444 7.35403 16.5441 8.02136 17.0061 8.65203C17.0208 8.6667 17.0354 8.67403 17.0501 8.67403C17.0648 8.67403 17.0758 8.6667 17.0831 8.65203C17.2224 8.36603 17.3581 8.08003 17.4901 7.79403C17.6294 7.50803 17.7651 7.22203 17.8971 6.93603C18.2344 6.2247 18.5681 5.50236 18.8981 4.76903C19.2281 4.0357 19.5764 3.32436 19.9431 2.63503C19.9724 2.9797 20.0018 3.2987 20.0311 3.59203C20.0678 3.88536 20.1081 4.20436 20.1521 4.54903V4.53803C20.2181 5.08803 20.2768 5.66003 20.3281 6.25403C20.3868 6.8407 20.4161 7.4127 20.4161 7.97003C20.4161 8.0507 20.4014 8.13503 20.3721 8.22303C20.3428 8.3037 20.3134 8.38803 20.2841 8.47603C20.2768 8.49803 20.2694 8.52003 20.2621 8.54203C20.2548 8.56403 20.2474 8.58603 20.2401 8.60803C20.2254 8.6447 20.2401 8.66303 20.2841 8.66303C20.6801 8.6777 21.0761 8.6887 21.4721 8.69603C21.8681 8.69603 22.2641 8.69603 22.6601 8.69603L22.6711 8.60803ZM30.7072 8.59703C30.4579 8.53103 30.2195 8.39903 29.9922 8.20103C29.7722 8.00303 29.5595 7.76836 29.3542 7.49703C29.1562 7.21836 28.9655 6.92136 28.7822 6.60603C28.5989 6.2907 28.4229 5.97903 28.2542 5.67103C28.1075 5.41436 27.9645 5.16503 27.8252 4.92303C27.6932 4.6737 27.5502 4.44636 27.3962 4.24103C27.4915 4.11636 27.5905 3.96603 27.6932 3.79003C27.8032 3.61403 27.9205 3.42336 28.0452 3.21803C28.2065 2.9467 28.3789 2.66436 28.5622 2.37103C28.7455 2.0777 28.9362 1.81003 29.1342 1.56803C29.3322 1.3187 29.5302 1.11336 29.7282 0.952031C29.9335 0.783364 30.1425 0.691698 30.3552 0.677031C30.3772 0.677031 30.3882 0.662364 30.3882 0.633031C30.3882 0.603698 30.3772 0.589031 30.3552 0.589031C30.1865 0.603697 30.0142 0.614697 29.8382 0.622031C29.6695 0.629364 29.5009 0.633031 29.3322 0.633031C28.9362 0.633031 28.5365 0.611031 28.1332 0.567031C28.1112 0.567031 28.0965 0.578031 28.0892 0.600031C28.0892 0.622031 28.1002 0.640364 28.1222 0.655031C28.1735 0.669698 28.2285 0.695364 28.2872 0.732031C28.3532 0.761364 28.4119 0.798031 28.4632 0.842031C28.5219 0.878698 28.5695 0.922698 28.6062 0.974031C28.6429 1.02536 28.6612 1.08036 28.6612 1.13903C28.6612 1.2197 28.6319 1.3187 28.5732 1.43603C28.5219 1.54603 28.4522 1.6707 28.3642 1.81003C28.2762 1.94936 28.1772 2.09603 28.0672 2.25003C27.9572 2.40403 27.8472 2.55803 27.7372 2.71203C27.5905 2.91003 27.4549 3.09703 27.3302 3.27303C27.2055 3.44903 27.1102 3.5957 27.0442 3.71303C26.9782 3.5737 26.8829 3.4087 26.7582 3.21803C26.6409 3.02003 26.5199 2.82203 26.3952 2.62403C26.2999 2.47736 26.2009 2.3307 26.0982 2.18403C26.0029 2.03003 25.9149 1.88703 25.8342 1.75503C25.7609 1.6157 25.6985 1.48736 25.6472 1.37003C25.6032 1.24536 25.5812 1.1427 25.5812 1.06203C25.5812 0.937364 25.6252 0.838364 25.7132 0.765031C25.8085 0.684364 25.9112 0.629364 26.0212 0.600031C26.0432 0.592697 26.0505 0.578031 26.0432 0.556031C26.0432 0.534031 26.0322 0.523031 26.0102 0.523031C25.9002 0.523031 25.7902 0.526698 25.6802 0.534031C25.5775 0.541364 25.4749 0.552364 25.3722 0.567031C25.2255 0.581698 25.0789 0.596364 24.9322 0.611031C24.7929 0.618364 24.6535 0.622031 24.5142 0.622031C24.3235 0.622031 24.1365 0.614698 23.9532 0.600031C23.7699 0.585364 23.5865 0.570698 23.4032 0.556031C23.3812 0.556031 23.3665 0.570697 23.3592 0.600031C23.3592 0.622031 23.3702 0.636698 23.3922 0.644031C23.6782 0.695364 23.9385 0.820031 24.1732 1.01803C24.4152 1.21603 24.6389 1.45436 24.8442 1.73303C25.0495 2.0117 25.2402 2.31603 25.4162 2.64603C25.5922 2.9687 25.7535 3.28036 25.9002 3.58103C25.9955 3.76436 26.0835 3.9367 26.1642 4.09803C26.2522 4.25203 26.3365 4.39503 26.4172 4.52703C26.3145 4.66636 26.2009 4.8387 26.0762 5.04403C25.9589 5.24203 25.8342 5.45836 25.7022 5.69303C25.5262 6.00103 25.3392 6.3237 25.1412 6.66103C24.9432 6.99836 24.7342 7.30636 24.5142 7.58503C24.3015 7.8637 24.0779 8.09836 23.8432 8.28903C23.6159 8.4797 23.3849 8.58236 23.1502 8.59703V8.68503C23.3335 8.67036 23.5095 8.6557 23.6782 8.64103C23.8542 8.62636 24.0339 8.61903 24.2172 8.61903C24.4152 8.61903 24.6132 8.62636 24.8112 8.64103C25.0165 8.64836 25.2219 8.65936 25.4272 8.67403V8.58603C25.3465 8.58603 25.2659 8.5677 25.1852 8.53103C25.1119 8.49436 25.0495 8.4467 24.9982 8.38803C25.0129 8.25603 25.0605 8.0947 25.1412 7.90403C25.2219 7.70603 25.3209 7.49703 25.4382 7.27703C25.5629 7.05703 25.6949 6.8297 25.8342 6.59503C25.9735 6.36036 26.1092 6.1367 26.2412 5.92403C26.3512 5.7407 26.4502 5.57936 26.5382 5.44003C26.6335 5.29336 26.7069 5.17236 26.7582 5.07703C26.7802 5.1137 26.8022 5.15036 26.8242 5.18703C26.8462 5.2237 26.8792 5.2787 26.9232 5.35203C27.0112 5.4987 27.1139 5.66736 27.2312 5.85803C27.3485 6.0487 27.4695 6.25036 27.5942 6.46303C27.7189 6.66836 27.8399 6.87736 27.9572 7.09003C28.0745 7.29536 28.1809 7.48603 28.2762 7.66203C28.3715 7.8307 28.4485 7.97736 28.5072 8.10203C28.5659 8.21936 28.5952 8.29636 28.5952 8.33303C28.5952 8.3697 28.5622 8.41736 28.4962 8.47603C28.4375 8.5347 28.3862 8.58236 28.3422 8.61903C28.3349 8.62636 28.3349 8.62636 28.3422 8.61903C28.3495 8.60436 28.3495 8.6007 28.3422 8.60803C28.3275 8.6227 28.3239 8.64103 28.3312 8.66303C28.3385 8.6777 28.3495 8.68503 28.3642 8.68503C28.4229 8.6777 28.4779 8.67403 28.5292 8.67403C28.5879 8.67403 28.6465 8.67036 28.7052 8.66303C28.8299 8.64836 28.9545 8.63736 29.0792 8.63003C29.2039 8.6227 29.3249 8.61903 29.4422 8.61903C29.5815 8.61903 29.7209 8.6227 29.8602 8.63003C29.9995 8.63736 30.1425 8.64836 30.2892 8.66303C30.3552 8.67036 30.4212 8.67403 30.4872 8.67403C30.5532 8.67403 30.6229 8.6777 30.6962 8.68503L30.7072 8.59703ZM38.7531 8.59703C38.5038 8.53103 38.2654 8.39903 38.0381 8.20103C37.8181 8.00303 37.6054 7.76836 37.4001 7.49703C37.2021 7.21836 37.0114 6.92136 36.8281 6.60603C36.6448 6.2907 36.4688 5.97903 36.3001 5.67103C36.1534 5.41436 36.0104 5.16503 35.8711 4.92303C35.7391 4.6737 35.5961 4.44636 35.4421 4.24103C35.5374 4.11636 35.6364 3.96603 35.7391 3.79003C35.8491 3.61403 35.9664 3.42336 36.0911 3.21803C36.2524 2.9467 36.4248 2.66436 36.6081 2.37103C36.7914 2.0777 36.9821 1.81003 37.1801 1.56803C37.3781 1.3187 37.5761 1.11336 37.7741 0.952031C37.9794 0.783364 38.1884 0.691698 38.4011 0.677031C38.4231 0.677031 38.4341 0.662364 38.4341 0.633031C38.4341 0.603698 38.4231 0.589031 38.4011 0.589031C38.2324 0.603697 38.0601 0.614697 37.8841 0.622031C37.7154 0.629364 37.5468 0.633031 37.3781 0.633031C36.9821 0.633031 36.5824 0.611031 36.1791 0.567031C36.1571 0.567031 36.1424 0.578031 36.1351 0.600031C36.1351 0.622031 36.1461 0.640364 36.1681 0.655031C36.2194 0.669698 36.2744 0.695364 36.3331 0.732031C36.3991 0.761364 36.4578 0.798031 36.5091 0.842031C36.5678 0.878698 36.6154 0.922698 36.6521 0.974031C36.6888 1.02536 36.7071 1.08036 36.7071 1.13903C36.7071 1.2197 36.6778 1.3187 36.6191 1.43603C36.5678 1.54603 36.4981 1.6707 36.4101 1.81003C36.3221 1.94936 36.2231 2.09603 36.1131 2.25003C36.0031 2.40403 35.8931 2.55803 35.7831 2.71203C35.6364 2.91003 35.5008 3.09703 35.3761 3.27303C35.2514 3.44903 35.1561 3.5957 35.0901 3.71303C35.0241 3.5737 34.9288 3.4087 34.8041 3.21803C34.6868 3.02003 34.5658 2.82203 34.4411 2.62403C34.3458 2.47736 34.2468 2.3307 34.1441 2.18403C34.0488 2.03003 33.9608 1.88703 33.8801 1.75503C33.8068 1.6157 33.7444 1.48736 33.6931 1.37003C33.6491 1.24536 33.6271 1.1427 33.6271 1.06203C33.6271 0.937364 33.6711 0.838364 33.7591 0.765031C33.8544 0.684364 33.9571 0.629364 34.0671 0.600031C34.0891 0.592697 34.0964 0.578031 34.0891 0.556031C34.0891 0.534031 34.0781 0.523031 34.0561 0.523031C33.9461 0.523031 33.8361 0.526698 33.7261 0.534031C33.6234 0.541364 33.5208 0.552364 33.4181 0.567031C33.2714 0.581698 33.1248 0.596364 32.9781 0.611031C32.8388 0.618364 32.6994 0.622031 32.5601 0.622031C32.3694 0.622031 32.1824 0.614698 31.9991 0.600031C31.8158 0.585364 31.6324 0.570698 31.4491 0.556031C31.4271 0.556031 31.4124 0.570697 31.4051 0.600031C31.4051 0.622031 31.4161 0.636698 31.4381 0.644031C31.7241 0.695364 31.9844 0.820031 32.2191 1.01803C32.4611 1.21603 32.6848 1.45436 32.8901 1.73303C33.0954 2.0117 33.2861 2.31603 33.4621 2.64603C33.6381 2.9687 33.7994 3.28036 33.9461 3.58103C34.0414 3.76436 34.1294 3.9367 34.2101 4.09803C34.2981 4.25203 34.3824 4.39503 34.4631 4.52703C34.3604 4.66636 34.2468 4.8387 34.1221 5.04403C34.0048 5.24203 33.8801 5.45836 33.7481 5.69303C33.5721 6.00103 33.3851 6.3237 33.1871 6.66103C32.9891 6.99836 32.7801 7.30636 32.5601 7.58503C32.3474 7.8637 32.1238 8.09836 31.8891 8.28903C31.6618 8.4797 31.4308 8.58236 31.1961 8.59703V8.68503C31.3794 8.67036 31.5554 8.6557 31.7241 8.64103C31.9001 8.62636 32.0798 8.61903 32.2631 8.61903C32.4611 8.61903 32.6591 8.62636 32.8571 8.64103C33.0624 8.64836 33.2678 8.65936 33.4731 8.67403V8.58603C33.3924 8.58603 33.3118 8.5677 33.2311 8.53103C33.1578 8.49436 33.0954 8.4467 33.0441 8.38803C33.0588 8.25603 33.1064 8.0947 33.1871 7.90403C33.2678 7.70603 33.3668 7.49703 33.4841 7.27703C33.6088 7.05703 33.7408 6.8297 33.8801 6.59503C34.0194 6.36036 34.1551 6.1367 34.2871 5.92403C34.3971 5.7407 34.4961 5.57936 34.5841 5.44003C34.6794 5.29336 34.7528 5.17236 34.8041 5.07703C34.8261 5.1137 34.8481 5.15036 34.8701 5.18703C34.8921 5.2237 34.9251 5.2787 34.9691 5.35203C35.0571 5.4987 35.1598 5.66736 35.2771 5.85803C35.3944 6.0487 35.5154 6.25036 35.6401 6.46303C35.7648 6.66836 35.8858 6.87736 36.0031 7.09003C36.1204 7.29536 36.2268 7.48603 36.3221 7.66203C36.4174 7.8307 36.4944 7.97736 36.5531 8.10203C36.6118 8.21936 36.6411 8.29636 36.6411 8.33303C36.6411 8.3697 36.6081 8.41736 36.5421 8.47603C36.4834 8.5347 36.4321 8.58236 36.3881 8.61903C36.3808 8.62636 36.3808 8.62636 36.3881 8.61903C36.3954 8.60436 36.3954 8.6007 36.3881 8.60803C36.3734 8.6227 36.3698 8.64103 36.3771 8.66303C36.3844 8.6777 36.3954 8.68503 36.4101 8.68503C36.4688 8.6777 36.5238 8.67403 36.5751 8.67403C36.6338 8.67403 36.6924 8.67036 36.7511 8.66303C36.8758 8.64836 37.0004 8.63736 37.1251 8.63003C37.2498 8.6227 37.3708 8.61903 37.4881 8.61903C37.6274 8.61903 37.7668 8.6227 37.9061 8.63003C38.0454 8.63736 38.1884 8.64836 38.3351 8.66303C38.4011 8.67036 38.4671 8.67403 38.5331 8.67403C38.5991 8.67403 38.6688 8.6777 38.7421 8.68503L38.7531 8.59703ZM42.047 8.68503V8.59703C41.6877 8.56036 41.4347 8.4577 41.288 8.28903C41.1413 8.12036 41.068 7.84903 41.068 7.47503V1.33703C41.068 1.20503 41.0863 1.10236 41.123 1.02903C41.1597 0.948364 41.211 0.886031 41.277 0.842031C41.343 0.790697 41.42 0.750364 41.508 0.721031C41.6033 0.691698 41.706 0.666031 41.816 0.644031C41.838 0.636698 41.8453 0.618364 41.838 0.589031C41.8307 0.559697 41.816 0.548697 41.794 0.556031C41.596 0.585364 41.3943 0.607364 41.189 0.622031C40.991 0.629364 40.7893 0.633031 40.584 0.633031C40.1367 0.633031 39.7003 0.611031 39.275 0.567031C39.253 0.567031 39.242 0.581698 39.242 0.611031C39.242 0.633031 39.253 0.647697 39.275 0.655031C39.4877 0.684364 39.671 0.746697 39.825 0.842031C39.9863 0.937364 40.067 1.10603 40.067 1.34803V7.51903C40.067 8.05436 39.8177 8.41736 39.319 8.60803C39.297 8.6227 39.286 8.64103 39.286 8.66303C39.2933 8.68503 39.308 8.69603 39.33 8.69603C39.6087 8.6887 39.8873 8.68503 40.166 8.68503C40.452 8.6777 40.7343 8.67403 41.013 8.67403C41.1817 8.67403 41.3503 8.67403 41.519 8.67403C41.695 8.67403 41.871 8.6777 42.047 8.68503Z" fill="#9C9C9C"/>
</svg>
