<svg width="93" height="17" viewBox="0 0 93 17" fill="none" xmlns="http://www.w3.org/2000/svg">
<path d="M8.09183 12.4002C8.09183 11.8636 7.994 11.3705 7.79835 10.9209C7.61666 10.4713 7.37209 10.0507 7.06463 9.65912C6.75717 9.26753 6.40778 8.8977 6.01647 8.54963C5.62515 8.18705 5.23384 7.83172 4.84252 7.48364C4.47916 7.17907 4.12278 6.87451 3.77339 6.56994C3.43798 6.25087 3.13751 5.9318 2.87197 5.61273C2.62041 5.27916 2.41078 4.94559 2.24307 4.61201C2.08934 4.26394 2.01248 3.8941 2.01248 3.50252C2.01248 3.12544 2.07537 2.77736 2.20115 2.45829C2.3409 2.13922 2.52258 1.87091 2.74619 1.65336C2.98378 1.42131 3.2563 1.24002 3.56376 1.10949C3.8852 0.978965 4.2276 0.9137 4.59096 0.9137C4.94035 0.9137 5.2548 0.986216 5.53431 1.13125C5.8278 1.26178 6.07936 1.44307 6.28899 1.67512C6.5126 1.89267 6.69428 2.15372 6.83403 2.45829C6.98776 2.76286 7.09957 3.08918 7.16945 3.43725C7.18342 3.48076 7.21137 3.50252 7.2533 3.50252C7.3092 3.48801 7.33715 3.45901 7.33715 3.4155C7.33715 3.38649 7.33715 3.36474 7.33715 3.35023C7.35113 3.32123 7.35812 3.29222 7.35812 3.26322C7.42799 2.79911 7.4839 2.33501 7.52582 1.87091C7.58172 1.40681 7.63064 0.942706 7.67256 0.478604C7.67256 0.420592 7.6516 0.391586 7.60968 0.391586C6.9668 0.203045 6.282 0.108774 5.55527 0.108774C5.0242 0.108774 4.44422 0.18129 3.81532 0.326321C3.2004 0.45685 2.6274 0.674397 2.09633 0.978964C1.56526 1.28353 1.11804 1.67512 0.754679 2.15372C0.391315 2.63233 0.209633 3.2052 0.209633 3.87235C0.209633 4.30744 0.307462 4.74254 0.503119 5.17764C0.698776 5.61273 0.950336 6.04058 1.2578 6.46117C1.56526 6.88176 1.91465 7.2951 2.30596 7.70119C2.69728 8.09278 3.08859 8.48436 3.47991 8.87595C3.85725 9.23853 4.2276 9.60836 4.59096 9.98544C4.95433 10.3625 5.27576 10.7396 5.55527 11.1167C5.84876 11.4938 6.07936 11.8781 6.24706 12.2697C6.42874 12.6468 6.51958 13.0166 6.51958 13.3792C6.51958 13.7708 6.42176 14.1334 6.2261 14.4669C6.04442 14.786 5.80683 15.0616 5.51335 15.2936C5.21986 15.5112 4.89143 15.6852 4.52807 15.8157C4.16471 15.9317 3.80833 15.9898 3.45894 15.9898C3.03968 15.9898 2.65535 15.9317 2.30596 15.8157C1.95657 15.6852 1.64911 15.5039 1.38358 15.2719C1.11804 15.0398 0.908409 14.7497 0.754679 14.4017C0.614923 14.0536 0.545045 13.6547 0.545045 13.2051V12.9658C0.545045 12.9223 0.517095 12.9006 0.461192 12.9006C0.419266 12.8861 0.391315 12.9006 0.377339 12.9441C0.349388 13.0601 0.321437 13.1834 0.293486 13.3139C0.279511 13.4299 0.258547 13.546 0.230596 13.662C0.174694 13.8795 0.118792 14.1043 0.0628898 14.3364C0.0209633 14.5684 0 14.815 0 15.0761C0 15.4386 0.0768654 15.7432 0.230596 15.9898C0.398303 16.2218 0.607935 16.4176 0.859495 16.5771C1.11105 16.7222 1.39056 16.8237 1.69803 16.8817C2.00549 16.9542 2.30596 16.9905 2.59945 16.9905C3.18642 16.9905 3.80134 16.8817 4.44422 16.6642C5.10107 16.4466 5.69503 16.1348 6.2261 15.7287C6.77114 15.3226 7.21836 14.844 7.56775 14.2929C7.91714 13.7273 8.09183 13.0964 8.09183 12.4002Z" fill="#111111"/>
<path d="M28.1989 16.4901C28.0452 16.4176 27.8984 16.3668 27.7587 16.3378C27.6329 16.3088 27.5071 16.2798 27.3813 16.2508C27.1577 16.2073 26.9271 16.142 26.6895 16.055C26.4659 15.9535 26.2563 15.7577 26.0606 15.4676C25.9768 15.3516 25.886 15.0616 25.7881 14.5975C25.6903 14.1188 25.5925 13.5387 25.4946 12.8571C25.3968 12.1609 25.299 11.3923 25.2012 10.5511C25.1033 9.69538 25.0055 8.82519 24.9077 7.94049C24.8238 7.04129 24.74 6.1566 24.6561 5.28641C24.5862 4.41622 24.5164 3.61854 24.4465 2.89339C24.4185 2.57431 24.3836 2.24799 24.3417 1.91442C24.3137 1.58085 24.2858 1.27628 24.2578 1.00072C24.2438 0.725159 24.2299 0.50036 24.2159 0.326321C24.2019 0.152283 24.1949 0.0652635 24.1949 0.0652635L24.0482 0.0217545C24.0482 0.0217545 23.9713 0.152283 23.8176 0.413341C23.6778 0.674398 23.5101 1.00072 23.3145 1.39231C23.1188 1.76939 22.9092 2.16823 22.6856 2.58882C22.4759 2.99491 22.3082 3.35023 22.1824 3.6548C22.1126 3.82884 22.0357 4.00288 21.9518 4.17692C21.882 4.35095 21.8051 4.52499 21.7212 4.69903C21.4138 5.35167 21.1133 6.01157 20.8198 6.67872C20.5403 7.33136 20.2538 7.984 19.9603 8.63664C19.597 9.47783 19.2336 10.3335 18.8702 11.2037C18.5069 12.0594 18.1295 12.9078 17.7382 13.749C17.5565 13.3864 17.319 12.8498 17.0255 12.1392C16.746 11.4285 16.4315 10.6888 16.0821 9.92018C15.7886 9.29654 15.4602 8.62214 15.0968 7.89698C14.7475 7.15732 14.3841 6.42491 14.0068 5.69975C13.6434 4.96009 13.28 4.24943 12.9167 3.56778C12.5673 2.87163 12.2528 2.2625 11.9733 1.74038C11.7078 1.21827 11.4912 0.797674 11.3235 0.478604C11.1557 0.159535 11.0719 0 11.0719 0L10.9252 0.043509C10.9252 0.043509 10.9112 0.13778 10.8832 0.326321C10.8692 0.50036 10.8483 0.732411 10.8203 1.02247C10.7924 1.29803 10.7574 1.60985 10.7155 1.95793C10.6876 2.30601 10.6526 2.65408 10.6107 3.00216C10.5268 3.75632 10.443 4.59026 10.3591 5.50396C10.2753 6.40315 10.1844 7.31686 10.0866 8.24506C9.98879 9.17326 9.89096 10.0797 9.79313 10.9644C9.6953 11.8491 9.60446 12.6395 9.52061 13.3357C9.43676 14.0318 9.35989 14.612 9.29001 15.0761C9.22014 15.5257 9.16423 15.7795 9.12231 15.8375C8.96858 16.0695 8.81485 16.2146 8.66112 16.2726C8.50738 16.3306 8.31871 16.3741 8.09511 16.4031C8.05318 16.4176 8.00427 16.4249 7.94836 16.4249C7.90644 16.4249 7.86451 16.4321 7.82258 16.4466C7.78066 16.4611 7.76668 16.4974 7.78066 16.5554C7.79463 16.6134 7.82258 16.6351 7.86451 16.6206C8.06017 16.5916 8.24884 16.5771 8.43052 16.5771C8.62618 16.5626 8.82183 16.5554 9.01749 16.5554C9.53459 16.5554 10.0587 16.5771 10.5897 16.6206C11.1068 16.6642 11.6309 16.6859 12.162 16.6859C12.2039 16.6859 12.2319 16.6642 12.2458 16.6206C12.2598 16.5771 12.2458 16.5409 12.2039 16.5119C12.1061 16.4684 12.0083 16.4321 11.9104 16.4031C11.8126 16.3596 11.7218 16.3233 11.6379 16.2943C11.3724 16.1928 11.1557 16.084 10.988 15.968C10.8203 15.8375 10.7365 15.5764 10.7365 15.1848C10.7365 13.9376 10.7924 12.683 10.9042 11.4213C11.016 10.145 11.1488 8.8977 11.3025 7.67943C11.3584 7.18633 11.4143 6.70772 11.4702 6.24362C11.5261 5.76501 11.575 5.27191 11.6169 4.76429C11.9524 5.41694 12.2458 6.03332 12.4974 6.61345C12.749 7.19358 13.0215 7.82447 13.315 8.50612C13.888 9.84041 14.4889 11.211 15.1178 12.6178C15.7607 14.0101 16.5223 15.3299 17.4028 16.5771C17.4308 16.6061 17.4587 16.6206 17.4867 16.6206C17.5146 16.6206 17.5356 16.6061 17.5496 16.5771C17.8151 16.0115 18.0736 15.4459 18.3252 14.8803C18.5907 14.3146 18.8493 13.749 19.1008 13.1834C19.7437 11.7766 20.3796 10.348 21.0085 8.8977C21.6374 7.44738 22.3012 6.04057 23 4.67728C23.0559 5.35893 23.1118 5.98981 23.1677 6.56994C23.2376 7.15007 23.3145 7.78096 23.3983 8.46261V8.44085C23.5241 9.52859 23.6359 10.6598 23.7337 11.8346C23.8455 12.9949 23.9014 14.1261 23.9014 15.2283C23.9014 15.3879 23.8735 15.5547 23.8176 15.7287C23.7617 15.8882 23.7058 16.055 23.6499 16.2291C23.6359 16.2726 23.6219 16.3161 23.6079 16.3596C23.594 16.4031 23.58 16.4466 23.566 16.4901C23.5381 16.5626 23.566 16.5989 23.6499 16.5989C24.4045 16.6279 25.1592 16.6497 25.9139 16.6642C26.6686 16.6642 27.4233 16.6642 28.1779 16.6642L28.1989 16.4901Z" fill="#111111"/>
<path d="M38.833 0.674397V0.50036C38.833 0.442347 38.8121 0.413341 38.7701 0.413341C38.6723 0.427844 38.5745 0.442347 38.4766 0.45685C38.3928 0.471353 38.3159 0.485856 38.2461 0.50036C38.1342 0.529366 38.0085 0.565624 37.8687 0.609134C37.7429 0.63814 37.6241 0.652643 37.5123 0.652643H28.4143C28.0509 0.652643 27.7295 0.630888 27.45 0.587379C27.1704 0.529366 26.8839 0.406089 26.5905 0.217548C26.5346 0.159535 26.4926 0.174038 26.4647 0.261057C26.4367 0.391585 26.4018 0.529365 26.3599 0.674397C26.3179 0.804926 26.276 0.942706 26.2341 1.08774C26.1502 1.3778 26.0734 1.66061 26.0035 1.93617C25.9336 2.21173 25.8987 2.49455 25.8987 2.78461C25.8987 2.90064 25.9126 3.03116 25.9406 3.1762C25.9406 3.21971 25.9546 3.24871 25.9825 3.26322C26.0245 3.26322 26.0594 3.24146 26.0873 3.19795C26.255 2.79186 26.5066 2.42928 26.842 2.11021C27.1914 1.77664 27.5897 1.60985 28.0369 1.60985H31.4959V14.4669C31.4959 14.815 31.4819 15.1051 31.4539 15.3371C31.44 15.5547 31.3841 15.736 31.2862 15.881C31.2024 16.026 31.0626 16.142 30.867 16.2291C30.6853 16.3161 30.4267 16.3958 30.0913 16.4684C30.0494 16.4829 30.0284 16.5191 30.0284 16.5771C30.0424 16.6206 30.0704 16.6424 30.1123 16.6424C30.4757 16.6134 30.832 16.5916 31.1814 16.5771C31.5448 16.5481 31.9081 16.5336 32.2715 16.5336C32.7746 16.5336 33.2708 16.5481 33.7599 16.5771C34.263 16.6061 34.7592 16.6424 35.2483 16.6859C35.2902 16.6859 35.3112 16.6642 35.3112 16.6206C35.3252 16.5626 35.3112 16.5264 35.2693 16.5119C34.7382 16.4249 34.291 16.1783 33.9276 15.7722C33.5782 15.3661 33.4035 14.873 33.4035 14.2929V1.5881H35.9401C36.2476 1.5881 36.541 1.6171 36.8205 1.67512C37.1001 1.71863 37.3516 1.80565 37.5752 1.93617C37.7988 2.0667 37.9805 2.24799 38.1203 2.48004C38.274 2.69759 38.3858 2.98766 38.4557 3.35023C38.4697 3.39374 38.4976 3.4155 38.5395 3.4155C38.5815 3.4155 38.6094 3.39374 38.6234 3.35023C38.7352 2.95865 38.7981 2.52355 38.8121 2.04495C38.826 1.55184 38.833 1.09499 38.833 0.674397Z" fill="#111111"/>
<path d="M54.9985 16.4901C54.3417 16.3741 53.8665 16.1493 53.573 15.8157C53.2795 15.4821 53.1328 14.9673 53.1328 14.2711V2.19723C53.1328 1.68962 53.2586 1.3633 53.5101 1.21827C53.7757 1.05873 54.118 0.935454 54.5373 0.848436C54.5792 0.833933 54.5932 0.804926 54.5792 0.761416C54.5792 0.703403 54.5583 0.674397 54.5163 0.674397C53.7617 0.717907 53.021 0.739662 52.2942 0.739662C51.847 0.739662 51.3928 0.73241 50.9316 0.717907C50.4704 0.6889 50.0162 0.659894 49.569 0.630888C49.5271 0.630888 49.4991 0.659894 49.4852 0.717907C49.4852 0.761417 49.5061 0.790424 49.548 0.804927L49.9673 0.935455C50.135 0.993468 50.2957 1.04423 50.4495 1.08774C50.6032 1.13125 50.736 1.19651 50.8478 1.28353C50.9736 1.37055 51.0644 1.48658 51.1203 1.63161C51.1902 1.77664 51.2251 1.97243 51.2251 2.21899V7.26609H42.4415V2.11021C42.4415 1.70412 42.5812 1.39231 42.8608 1.17476C43.1403 0.942706 43.4687 0.81943 43.846 0.804927C43.888 0.804927 43.9089 0.77592 43.9089 0.717907C43.9089 0.659894 43.888 0.630888 43.846 0.630888C43.7762 0.630888 43.6993 0.63814 43.6154 0.652643C43.5316 0.652643 43.4547 0.652643 43.3848 0.652643C43.0634 0.667146 42.742 0.681649 42.4205 0.696153C42.0991 0.696153 41.7777 0.696153 41.4562 0.696153C41.037 0.696153 40.6177 0.688901 40.1984 0.674397C39.7792 0.645391 39.3529 0.616385 38.9197 0.587379V0.761416C39.311 0.77592 39.6743 0.899197 40.0098 1.13125C40.3591 1.3488 40.5338 1.68237 40.5338 2.13197V14.6627C40.5338 14.9963 40.5199 15.2646 40.4919 15.4676C40.464 15.6707 40.4011 15.8375 40.3032 15.968C40.2054 16.084 40.0587 16.1856 39.863 16.2726C39.6813 16.3451 39.4298 16.4104 39.1083 16.4684C39.0664 16.4829 39.0454 16.5191 39.0454 16.5771C39.0594 16.6206 39.0874 16.6424 39.1293 16.6424C39.1992 16.6424 39.283 16.6497 39.3809 16.6642C39.4927 16.6642 39.5835 16.6642 39.6534 16.6642C39.9049 16.6787 40.1495 16.6859 40.3871 16.6859C40.6247 16.6859 40.8623 16.6859 41.0998 16.6859C41.3095 16.6859 41.5471 16.6859 41.8126 16.6859C42.0921 16.6714 42.3367 16.6642 42.5463 16.6642C42.8398 16.6497 43.1333 16.6424 43.4268 16.6424C43.7203 16.6424 44.0068 16.6424 44.2863 16.6424C44.3282 16.6424 44.3492 16.6134 44.3492 16.5554C44.3492 16.4974 44.3282 16.4684 44.2863 16.4684C43.6713 16.4104 43.2032 16.2146 42.8817 15.881C42.5743 15.5474 42.4205 15.0471 42.4205 14.3799V8.15804H51.2251V14.3364C51.2251 14.4959 51.2111 14.6917 51.1832 14.9238C51.1552 15.1413 51.0993 15.3589 51.0155 15.5764C50.9456 15.794 50.8478 15.9825 50.722 16.142C50.5962 16.2871 50.4425 16.3596 50.2608 16.3596C50.1909 16.3596 50.121 16.3668 50.0512 16.3813C49.9813 16.3958 49.9114 16.4176 49.8415 16.4466C49.7996 16.4611 49.7786 16.4974 49.7786 16.5554C49.7926 16.5989 49.8206 16.6206 49.8625 16.6206C50.2259 16.6061 50.5962 16.5989 50.9736 16.5989C51.3509 16.5844 51.7212 16.5771 52.0846 16.5771C52.5738 16.5771 53.0559 16.5844 53.5311 16.5989C54.0062 16.6134 54.4884 16.6351 54.9775 16.6642L54.9985 16.4901Z" fill="#111111"/>
<path d="M58.2576 15.6417C58.2576 15.3661 58.1597 15.1051 57.9641 14.8585C57.7684 14.612 57.5308 14.4887 57.2513 14.4887C56.9718 14.4887 56.7482 14.5902 56.5805 14.7932C56.4268 14.9963 56.3499 15.2283 56.3499 15.4894C56.3499 15.736 56.4198 15.997 56.5595 16.2726C56.6993 16.5336 56.9089 16.6642 57.1884 16.6642C57.44 16.6642 57.6776 16.5699 57.9012 16.3813C58.1388 16.1783 58.2576 15.9317 58.2576 15.6417Z" fill="#111111"/>
<path d="M70.9408 7.23936C70.9408 6.41941 70.8391 5.60818 70.6358 4.80568C70.4493 4.00318 70.1527 3.28791 69.746 2.65986C69.3392 2.01437 68.8054 1.49973 68.1444 1.11592C67.5004 0.714669 66.7207 0.514044 65.8056 0.514044C64.7717 0.514044 63.8735 0.732115 63.1108 1.16826C62.3651 1.6044 61.7465 2.18011 61.255 2.89538C60.7635 3.61065 60.3991 4.42188 60.1618 5.32905C59.9245 6.23623 59.8059 7.16085 59.8059 8.10292C59.8059 9.02754 59.9245 9.98705 60.1618 10.9815C60.416 11.9759 60.7889 12.8918 61.2804 13.7292C61.7888 14.5665 62.4244 15.2644 63.1871 15.8226C63.9497 16.3635 64.8565 16.6513 65.9072 16.6862C66.7377 16.2675 67.4665 15.718 68.0935 15.0376C68.7206 14.3398 69.246 13.5634 69.6697 12.7086C70.0934 11.8537 70.407 10.964 70.6103 10.0394C70.8307 9.09732 70.9408 8.16398 70.9408 7.23936ZM68.8816 7.97208C68.8816 8.56523 68.8308 9.24561 68.7291 10.0132C68.6444 10.7634 68.4918 11.5048 68.2715 12.2375C68.0681 12.9703 67.78 13.6506 67.4072 14.2787C67.0512 14.9067 66.6021 15.3778 66.0598 15.6918C65.2632 15.4301 64.5853 15.0027 64.026 14.4095C63.4837 13.7989 63.043 13.1098 62.704 12.3422C62.3651 11.5746 62.1109 10.7634 61.9414 9.90855C61.7888 9.05371 61.7126 8.24248 61.7126 7.47487C61.7126 6.9515 61.7549 6.34963 61.8397 5.66924C61.9244 4.97142 62.0854 4.3172 62.3227 3.70661C62.5769 3.07856 62.9159 2.55519 63.3396 2.13649C63.7633 1.7178 64.3056 1.50845 64.9666 1.50845C65.7462 1.50845 66.3903 1.72652 66.8987 2.16266C67.4071 2.5988 67.8054 3.13962 68.0935 3.78511C68.3986 4.4306 68.602 5.12843 68.7037 5.87859C68.8223 6.62876 68.8816 7.32658 68.8816 7.97208Z" fill="#111111"/>
<path d="M78.2986 16.2152C78.2138 16.0756 78.0867 15.9884 77.9172 15.9535C77.7478 15.9011 77.5613 15.8663 77.358 15.8488C77.1885 15.8314 77.0105 15.8052 76.8241 15.7703C76.6546 15.7354 76.5021 15.6656 76.3665 15.561C76.2309 15.4563 76.1123 15.308 76.0106 15.1161C75.9258 14.9067 75.8835 14.6276 75.8835 14.2787C75.8835 13.2668 75.8835 12.2724 75.8835 11.2955C75.8835 10.3011 75.8919 9.30667 75.9089 8.31227C75.9258 7.31786 75.9343 6.33218 75.9343 5.35522C75.9343 4.37826 75.9343 3.39258 75.9343 2.39818V2.00565C75.9343 1.74397 75.9343 1.491 75.9343 1.24676C75.9343 0.985078 75.9174 0.732115 75.8835 0.487876C75.8835 0.383202 75.8411 0.34831 75.7564 0.383201C74.9428 0.819344 74.1378 1.2991 73.3413 1.82247C72.5616 2.34584 71.8159 2.91283 71.1041 3.52343C71.0702 3.55832 71.0617 3.60193 71.0787 3.65427C71.0956 3.70661 71.1295 3.72405 71.1804 3.70661C71.4176 3.67171 71.638 3.61065 71.8413 3.52343C72.0447 3.41875 72.2481 3.3228 72.4515 3.23557C72.6718 3.1309 72.8836 3.04367 73.087 2.97389C73.2904 2.88666 73.4599 2.84304 73.5955 2.84304C73.7988 2.84304 73.9768 2.92155 74.1293 3.07856V14.4095C74.1293 14.741 74.0785 15.0027 73.9768 15.1946C73.8921 15.369 73.765 15.5086 73.5955 15.6133C73.426 15.7005 73.2311 15.7703 73.0108 15.8226C72.8074 15.8575 72.5955 15.8837 72.3752 15.9011C72.2057 15.9186 72.0532 15.936 71.9176 15.9535C71.782 15.9709 71.6464 15.9971 71.5108 16.032C71.46 16.0494 71.4346 16.093 71.4346 16.1628C71.4515 16.2152 71.4854 16.2413 71.5363 16.2413C72.6549 16.2937 73.7649 16.3286 74.8666 16.346C75.9852 16.3635 77.1037 16.3722 78.2223 16.3722L78.2986 16.2152Z" fill="#111111"/>
<path d="M85.6482 16.2152C85.5634 16.0756 85.4363 15.9884 85.2668 15.9535C85.0974 15.9011 84.9109 15.8663 84.7076 15.8488C84.5381 15.8314 84.3601 15.8052 84.1737 15.7703C84.0042 15.7354 83.8517 15.6656 83.7161 15.561C83.5805 15.4563 83.4619 15.308 83.3602 15.1161C83.2754 14.9067 83.2331 14.6276 83.2331 14.2787C83.2331 13.2668 83.2331 12.2724 83.2331 11.2955C83.2331 10.3011 83.2415 9.30667 83.2585 8.31227C83.2754 7.31786 83.2839 6.33218 83.2839 5.35522C83.2839 4.37826 83.2839 3.39258 83.2839 2.39818V2.00565C83.2839 1.74397 83.2839 1.491 83.2839 1.24676C83.2839 0.985078 83.267 0.732115 83.2331 0.487876C83.2331 0.383202 83.1907 0.34831 83.106 0.383201C82.2924 0.819344 81.4874 1.2991 80.6909 1.82247C79.9112 2.34584 79.1655 2.91283 78.4537 3.52343C78.4198 3.55832 78.4113 3.60193 78.4283 3.65427C78.4452 3.70661 78.4791 3.72405 78.53 3.70661C78.7672 3.67171 78.9876 3.61065 79.1909 3.52343C79.3943 3.41875 79.5977 3.3228 79.8011 3.23557C80.0214 3.1309 80.2332 3.04367 80.4366 2.97389C80.64 2.88666 80.8095 2.84304 80.9451 2.84304C81.1484 2.84304 81.3264 2.92155 81.4789 3.07856V14.4095C81.4789 14.741 81.4281 15.0027 81.3264 15.1946C81.2417 15.369 81.1146 15.5086 80.9451 15.6133C80.7756 15.7005 80.5807 15.7703 80.3604 15.8226C80.157 15.8575 79.9451 15.8837 79.7248 15.9011C79.5553 15.9186 79.4028 15.936 79.2672 15.9535C79.1316 15.9709 78.996 15.9971 78.8604 16.032C78.8096 16.0494 78.7842 16.093 78.7842 16.1628C78.8011 16.2152 78.835 16.2413 78.8859 16.2413C80.0044 16.2937 81.1145 16.3286 82.2162 16.346C83.3348 16.3635 84.4533 16.3722 85.5719 16.3722L85.6482 16.2152Z" fill="#111111"/>
<path d="M92.9978 16.2152C92.913 16.0756 92.7859 15.9884 92.6164 15.9535C92.447 15.9011 92.2605 15.8663 92.0572 15.8488C91.8877 15.8314 91.7097 15.8052 91.5233 15.7703C91.3538 15.7354 91.2013 15.6656 91.0657 15.561C90.9301 15.4563 90.8115 15.308 90.7098 15.1161C90.625 14.9067 90.5827 14.6276 90.5827 14.2787C90.5827 13.2668 90.5827 12.2724 90.5827 11.2955C90.5827 10.3011 90.5911 9.30667 90.6081 8.31227C90.625 7.31786 90.6335 6.33218 90.6335 5.35522C90.6335 4.37826 90.6335 3.39258 90.6335 2.39818V2.00565C90.6335 1.74397 90.6335 1.491 90.6335 1.24676C90.6335 0.985078 90.6166 0.732115 90.5827 0.487876C90.5827 0.383202 90.5403 0.34831 90.4556 0.383201C89.642 0.819344 88.837 1.2991 88.0405 1.82247C87.2608 2.34584 86.5151 2.91283 85.8033 3.52343C85.7694 3.55832 85.7609 3.60193 85.7779 3.65427C85.7948 3.70661 85.8287 3.72405 85.8796 3.70661C86.1168 3.67171 86.3372 3.61065 86.5405 3.52343C86.7439 3.41875 86.9473 3.3228 87.1507 3.23557C87.371 3.1309 87.5828 3.04367 87.7862 2.97389C87.9896 2.88666 88.1591 2.84304 88.2947 2.84304C88.4981 2.84304 88.676 2.92155 88.8285 3.07856V14.4095C88.8285 14.741 88.7777 15.0027 88.676 15.1946C88.5913 15.369 88.4642 15.5086 88.2947 15.6133C88.1252 15.7005 87.9303 15.7703 87.71 15.8226C87.5066 15.8575 87.2947 15.8837 87.0744 15.9011C86.9049 15.9186 86.7524 15.936 86.6168 15.9535C86.4812 15.9709 86.3456 15.9971 86.21 16.032C86.1592 16.0494 86.1338 16.093 86.1338 16.1628C86.1507 16.2152 86.1846 16.2413 86.2355 16.2413C87.354 16.2937 88.4641 16.3286 89.5658 16.346C90.6844 16.3635 91.8029 16.3722 92.9215 16.3722L92.9978 16.2152Z" fill="#111111"/>
</svg>
