<svg width="105" height="19" viewBox="0 0 105 19" fill="none" xmlns="http://www.w3.org/2000/svg">
<path d="M9.12252 13.68C9.12252 13.088 9.01223 12.544 8.79165 12.048C8.58683 11.552 8.3111 11.088 7.96448 10.656C7.61785 10.224 7.22396 9.816 6.7828 9.432C6.34165 9.032 5.90049 8.64 5.45933 8.256C5.04968 7.92 4.64792 7.584 4.25402 7.248C3.87589 6.896 3.53714 6.544 3.23778 6.192C2.95418 5.824 2.71785 5.456 2.52878 5.088C2.35547 4.704 2.26881 4.296 2.26881 3.864C2.26881 3.448 2.33971 3.064 2.48151 2.712C2.63907 2.36 2.84389 2.064 3.09598 1.824C3.36383 1.568 3.67106 1.368 4.01769 1.224C4.38007 1.08 4.76608 1.008 5.17573 1.008C5.56962 1.008 5.92412 1.088 6.23924 1.248C6.5701 1.392 6.85371 1.592 7.09004 1.848C7.34213 2.088 7.54695 2.376 7.70451 2.712C7.87782 3.048 8.00387 3.408 8.08265 3.792C8.0984 3.84 8.12991 3.864 8.17718 3.864C8.2402 3.848 8.27171 3.816 8.27171 3.768C8.27171 3.736 8.27171 3.712 8.27171 3.696C8.28747 3.664 8.29535 3.632 8.29535 3.6C8.37413 3.088 8.43715 2.576 8.48441 2.064C8.54744 1.552 8.60258 1.04 8.64985 0.527999C8.64985 0.464 8.62622 0.432 8.57895 0.432C7.85419 0.224 7.08216 0.12 6.26287 0.12C5.66415 0.12 5.0103 0.2 4.30129 0.36C3.60804 0.504 2.96206 0.743999 2.36335 1.08C1.76463 1.416 1.26045 1.848 0.850805 2.376C0.441158 2.904 0.236335 3.536 0.236335 4.272C0.236335 4.752 0.346624 5.232 0.567203 5.712C0.787782 6.192 1.07138 6.664 1.41801 7.128C1.76463 7.592 2.15852 8.048 2.59968 8.496C3.04084 8.928 3.482 9.36 3.92316 9.792C4.34856 10.192 4.76608 10.6 5.17573 11.016C5.58538 11.432 5.94776 11.848 6.26287 12.264C6.59374 12.68 6.85371 13.104 7.04277 13.536C7.2476 13.952 7.35001 14.36 7.35001 14.76C7.35001 15.192 7.23972 15.592 7.01914 15.96C6.81432 16.312 6.54647 16.616 6.2156 16.872C5.88473 17.112 5.51448 17.304 5.10483 17.448C4.69518 17.576 4.29341 17.64 3.89952 17.64C3.42685 17.64 2.99357 17.576 2.59968 17.448C2.20579 17.304 1.85917 17.104 1.55981 16.848C1.26045 16.592 1.02412 16.272 0.850805 15.888C0.693248 15.504 0.61447 15.064 0.61447 14.568V14.304C0.61447 14.256 0.582959 14.232 0.519936 14.232C0.472669 14.216 0.441158 14.232 0.425402 14.28C0.393891 14.408 0.36238 14.544 0.330869 14.688C0.315113 14.816 0.291479 14.944 0.259968 15.072C0.196946 15.312 0.133923 15.56 0.0709004 15.816C0.0236335 16.072 0 16.344 0 16.632C0 17.032 0.086656 17.368 0.259968 17.64C0.449036 17.896 0.685371 18.112 0.968972 18.288C1.25257 18.448 1.56769 18.56 1.91431 18.624C2.26093 18.704 2.59968 18.744 2.93055 18.744C3.59229 18.744 4.28554 18.624 5.01029 18.384C5.75081 18.144 6.42043 17.8 7.01914 17.352C7.63361 16.904 8.13779 16.376 8.53168 15.768C8.92557 15.144 9.12252 14.448 9.12252 13.68Z" fill="#333333"/>
<path d="M31.7907 18.192C31.6174 18.112 31.452 18.056 31.2944 18.024C31.1526 17.992 31.0108 17.96 30.869 17.928C30.6169 17.88 30.3569 17.808 30.0891 17.712C29.837 17.6 29.6007 17.384 29.3801 17.064C29.2856 16.936 29.1831 16.616 29.0729 16.104C28.9626 15.576 28.8523 14.936 28.742 14.184C28.6317 13.416 28.5214 12.568 28.4111 11.64C28.3008 10.696 28.1905 9.736 28.0803 8.76C27.9857 7.768 27.8912 6.792 27.7967 5.832C27.7179 4.872 27.6391 3.992 27.5603 3.192C27.5288 2.84 27.4894 2.48 27.4421 2.112C27.4106 1.744 27.3791 1.408 27.3476 1.104C27.3319 0.8 27.3161 0.552 27.3003 0.36C27.2846 0.167999 27.2767 0.0719991 27.2767 0.0719991L27.1113 0.0239997C27.1113 0.0239997 27.0246 0.168 26.8513 0.456C26.6938 0.744 26.5047 1.104 26.2841 1.536C26.0635 1.952 25.8272 2.392 25.5751 2.856C25.3388 3.304 25.1497 3.696 25.0079 4.032C24.9291 4.224 24.8425 4.416 24.7479 4.608C24.6692 4.8 24.5825 4.992 24.488 5.184C24.1413 5.904 23.8026 6.632 23.4717 7.368C23.1566 8.088 22.8336 8.808 22.5028 9.528C22.0931 10.456 21.6835 11.4 21.2738 12.36C20.8642 13.304 20.4388 14.24 19.9976 15.168C19.7928 14.768 19.5249 14.176 19.1941 13.392C18.879 12.608 18.5245 11.792 18.1306 10.944C17.7997 10.256 17.4294 9.512 17.0198 8.712C16.6259 7.896 16.2163 7.088 15.7908 6.288C15.3812 5.472 14.9716 4.688 14.5619 3.936C14.168 3.168 13.8135 2.496 13.4984 1.92C13.199 1.344 12.9548 0.879999 12.7658 0.527999C12.5767 0.176 12.4822 0 12.4822 0L12.3167 0.0479994C12.3167 0.0479994 12.301 0.151999 12.2695 0.36C12.2537 0.552 12.2301 0.808 12.1986 1.128C12.1671 1.432 12.1277 1.776 12.0804 2.16C12.0489 2.544 12.0095 2.928 11.9622 3.312C11.8677 4.144 11.7732 5.064 11.6786 6.072C11.5841 7.064 11.4817 8.072 11.3714 9.096C11.2611 10.12 11.1508 11.12 11.0405 12.096C10.9302 13.072 10.8278 13.944 10.7333 14.712C10.6388 15.48 10.5521 16.12 10.4733 16.632C10.3945 17.128 10.3315 17.408 10.2843 17.472C10.1109 17.728 9.93763 17.888 9.76431 17.952C9.591 18.016 9.3783 18.064 9.12621 18.096C9.07894 18.112 9.0238 18.12 8.96078 18.12C8.91351 18.12 8.86624 18.128 8.81898 18.144C8.77171 18.16 8.75595 18.2 8.77171 18.264C8.78746 18.328 8.81898 18.352 8.86624 18.336C9.08682 18.304 9.29952 18.288 9.50435 18.288C9.72493 18.272 9.9455 18.264 10.1661 18.264C10.749 18.264 11.3399 18.288 11.9386 18.336C12.5216 18.384 13.1124 18.408 13.7111 18.408C13.7584 18.408 13.7899 18.384 13.8056 18.336C13.8214 18.288 13.8056 18.248 13.7584 18.216C13.6481 18.168 13.5378 18.128 13.4275 18.096C13.3172 18.048 13.2148 18.008 13.1203 17.976C12.8209 17.864 12.5767 17.744 12.3876 17.616C12.1986 17.472 12.104 17.184 12.104 16.752C12.104 15.376 12.1671 13.992 12.2931 12.6C12.4191 11.192 12.5688 9.816 12.7421 8.472C12.8052 7.928 12.8682 7.4 12.9312 6.888C12.9942 6.36 13.0494 5.816 13.0966 5.256C13.4748 5.976 13.8056 6.656 14.0892 7.296C14.3728 7.936 14.6801 8.632 15.0109 9.384C15.6569 10.856 16.3344 12.368 17.0434 13.92C17.7682 15.456 18.6269 16.912 19.6195 18.288C19.651 18.32 19.6825 18.336 19.714 18.336C19.7455 18.336 19.7691 18.32 19.7849 18.288C20.0843 17.664 20.3757 17.04 20.6593 16.416C20.9587 15.792 21.2502 15.168 21.5338 14.544C22.2585 12.992 22.9754 11.416 23.6844 9.816C24.3934 8.216 25.1418 6.664 25.9296 5.16C25.9926 5.912 26.0557 6.608 26.1187 7.248C26.1975 7.888 26.2841 8.584 26.3786 9.336V9.312C26.5204 10.512 26.6465 11.76 26.7568 13.056C26.8828 14.336 26.9458 15.584 26.9458 16.8C26.9458 16.976 26.9143 17.16 26.8513 17.352C26.7883 17.528 26.7253 17.712 26.6622 17.904C26.6465 17.952 26.6307 18 26.615 18.048C26.5992 18.096 26.5835 18.144 26.5677 18.192C26.5362 18.272 26.5677 18.312 26.6622 18.312C27.513 18.344 28.3639 18.368 29.2147 18.384C30.0655 18.384 30.9163 18.384 31.7671 18.384L31.7907 18.192Z" fill="#333333"/>
<path d="M43.7793 0.743999V0.552C43.7793 0.488 43.7557 0.456 43.7084 0.456C43.5981 0.472 43.4879 0.487999 43.3776 0.503999C43.283 0.519999 43.1964 0.535999 43.1176 0.552C42.9916 0.584 42.8498 0.624 42.6922 0.672C42.5504 0.704 42.4165 0.719999 42.2904 0.719999H32.0335C31.6239 0.719999 31.2615 0.696 30.9464 0.648C30.6313 0.584 30.3083 0.448 29.9774 0.24C29.9144 0.176 29.8671 0.191999 29.8356 0.287999C29.8041 0.431999 29.7647 0.583999 29.7174 0.743999C29.6702 0.887999 29.6229 1.04 29.5756 1.2C29.4811 1.52 29.3944 1.832 29.3157 2.136C29.2369 2.44 29.1975 2.752 29.1975 3.072C29.1975 3.2 29.2132 3.344 29.2448 3.504C29.2448 3.552 29.2605 3.584 29.292 3.6C29.3393 3.6 29.3787 3.576 29.4102 3.528C29.5993 3.08 29.8829 2.68 30.261 2.328C30.6549 1.96 31.1039 1.776 31.6081 1.776H35.5076V15.96C35.5076 16.344 35.4919 16.664 35.4604 16.92C35.4446 17.16 35.3816 17.36 35.2713 17.52C35.1768 17.68 35.0192 17.808 34.7986 17.904C34.5938 18 34.3023 18.088 33.9242 18.168C33.8769 18.184 33.8533 18.224 33.8533 18.288C33.869 18.336 33.9005 18.36 33.9478 18.36C34.3575 18.328 34.7592 18.304 35.1531 18.288C35.5628 18.256 35.9724 18.24 36.3821 18.24C36.9493 18.24 37.5086 18.256 38.06 18.288C38.6272 18.32 39.1866 18.36 39.738 18.408C39.7853 18.408 39.8089 18.384 39.8089 18.336C39.8247 18.272 39.8089 18.232 39.7616 18.216C39.1629 18.12 38.6587 17.848 38.2491 17.4C37.8552 16.952 37.6583 16.408 37.6583 15.768V1.752H40.5179C40.8645 1.752 41.1954 1.784 41.5105 1.848C41.8256 1.896 42.1092 1.992 42.3613 2.136C42.6134 2.28 42.8182 2.48 42.9758 2.736C43.1491 2.976 43.2752 3.296 43.3539 3.696C43.3697 3.744 43.4012 3.768 43.4485 3.768C43.4957 3.768 43.5272 3.744 43.543 3.696C43.669 3.264 43.7399 2.784 43.7557 2.256C43.7715 1.712 43.7793 1.208 43.7793 0.743999Z" fill="#333333"/>
<path d="M62.0039 18.192C61.2634 18.064 60.7277 17.816 60.3968 17.448C60.0659 17.08 59.9005 16.512 59.9005 15.744V2.424C59.9005 1.864 60.0423 1.504 60.3259 1.344C60.6253 1.168 61.0113 1.032 61.4839 0.935999C61.5312 0.92 61.547 0.888 61.5312 0.839999C61.5312 0.775999 61.5076 0.743999 61.4603 0.743999C60.6095 0.791999 59.7744 0.816 58.9552 0.816C58.451 0.816 57.9389 0.808 57.419 0.792C56.899 0.759999 56.387 0.727999 55.8828 0.696C55.8355 0.696 55.804 0.728 55.7883 0.792C55.7883 0.84 55.8119 0.872 55.8592 0.888L56.3318 1.032C56.5209 1.096 56.7021 1.152 56.8754 1.2C57.0487 1.248 57.1984 1.32 57.3244 1.416C57.4663 1.512 57.5687 1.64 57.6317 1.8C57.7105 1.96 57.7499 2.176 57.7499 2.448V8.016H47.8474V2.328C47.8474 1.88 48.005 1.536 48.3201 1.296C48.6352 1.04 49.0055 0.904 49.4309 0.888C49.4781 0.888 49.5018 0.856 49.5018 0.792C49.5018 0.728 49.4781 0.696 49.4309 0.696C49.3521 0.696 49.2654 0.704 49.1709 0.719999C49.0764 0.719999 48.9897 0.719999 48.9109 0.719999C48.5486 0.735999 48.1862 0.751999 47.8238 0.768C47.4614 0.768 47.099 0.768 46.7367 0.768C46.264 0.768 45.7913 0.76 45.3186 0.743999C44.846 0.711999 44.3654 0.68 43.877 0.648V0.839999C44.3182 0.856 44.7278 0.992 45.1059 1.248C45.4998 1.488 45.6968 1.856 45.6968 2.352V16.176C45.6968 16.544 45.681 16.84 45.6495 17.064C45.618 17.288 45.5471 17.472 45.4368 17.616C45.3265 17.744 45.1611 17.856 44.9405 17.952C44.7357 18.032 44.4521 18.104 44.0897 18.168C44.0424 18.184 44.0188 18.224 44.0188 18.288C44.0346 18.336 44.0661 18.36 44.1133 18.36C44.1921 18.36 44.2867 18.368 44.3969 18.384C44.523 18.384 44.6254 18.384 44.7042 18.384C44.9878 18.4 45.2635 18.408 45.5313 18.408C45.7992 18.408 46.067 18.408 46.3349 18.408C46.5712 18.408 46.8391 18.408 47.1384 18.408C47.4535 18.392 47.7293 18.384 47.9656 18.384C48.2965 18.368 48.6273 18.36 48.9582 18.36C49.2891 18.36 49.6121 18.36 49.9272 18.36C49.9744 18.36 49.9981 18.328 49.9981 18.264C49.9981 18.2 49.9744 18.168 49.9272 18.168C49.2339 18.104 48.7061 17.888 48.3437 17.52C47.9971 17.152 47.8238 16.6 47.8238 15.864V9H57.7499V15.816C57.7499 15.992 57.7341 16.208 57.7026 16.464C57.6711 16.704 57.608 16.944 57.5135 17.184C57.4347 17.424 57.3244 17.632 57.1826 17.808C57.0408 17.968 56.8675 18.048 56.6627 18.048C56.5839 18.048 56.5052 18.056 56.4264 18.072C56.3476 18.088 56.2688 18.112 56.19 18.144C56.1428 18.16 56.1191 18.2 56.1191 18.264C56.1349 18.312 56.1664 18.336 56.2137 18.336C56.6233 18.32 57.0408 18.312 57.4662 18.312C57.8917 18.296 58.3092 18.288 58.7188 18.288C59.2703 18.288 59.8138 18.296 60.3495 18.312C60.8852 18.328 61.4288 18.352 61.9802 18.384L62.0039 18.192Z" fill="#333333"/>
<path d="M65.678 17.256C65.678 16.952 65.5678 16.664 65.3472 16.392C65.1266 16.12 64.8587 15.984 64.5436 15.984C64.2285 15.984 63.9764 16.096 63.7874 16.32C63.6141 16.544 63.5274 16.8 63.5274 17.088C63.5274 17.36 63.6062 17.648 63.7637 17.952C63.9213 18.24 64.1576 18.384 64.4727 18.384C64.7563 18.384 65.0242 18.28 65.2763 18.072C65.5441 17.848 65.678 17.576 65.678 17.256Z" fill="#333333"/>
<path d="M79.979 7.98639C79.979 7.08182 79.8644 6.18687 79.6351 5.30155C79.4249 4.41622 79.0905 3.62713 78.632 2.93427C78.1734 2.22216 77.5715 1.65439 76.8264 1.23098C76.1003 0.788315 75.2214 0.566984 74.1896 0.566984C73.0241 0.566984 72.0114 0.807561 71.1516 1.28872C70.3109 1.76987 69.6135 2.405 69.0594 3.19409C68.5053 3.98318 68.0945 4.87813 67.827 5.87893C67.5595 6.87973 67.4258 7.89978 67.4258 8.93908C67.4258 9.95913 67.5595 11.0177 67.827 12.1147C68.1136 13.2117 68.534 14.2222 69.0881 15.146C69.6613 16.0698 70.3778 16.8396 71.2376 17.4555C72.0974 18.0521 73.1196 18.3697 74.3043 18.4082C75.2405 17.9463 76.0621 17.34 76.769 16.5894C77.476 15.8196 78.0683 14.9631 78.546 14.0201C79.0237 13.077 79.3771 12.0955 79.6064 11.0754C79.8548 10.0361 79.979 9.00644 79.979 7.98639ZM77.6575 8.79473C77.6575 9.4491 77.6002 10.1997 77.4856 11.0465C77.39 11.8741 77.2181 12.6921 76.9697 13.5004C76.7404 14.3088 76.4156 15.0594 75.9952 15.7522C75.594 16.4451 75.0876 16.9647 74.4762 17.3112C73.5782 17.0225 72.8139 16.5509 72.1834 15.8966C71.572 15.223 71.0752 14.4627 70.6931 13.6159C70.3109 12.7691 70.0243 11.8741 69.8332 10.9311C69.6613 9.988 69.5753 9.09305 69.5753 8.24621C69.5753 7.66883 69.6231 7.00483 69.7186 6.25423C69.8141 5.48438 69.9957 4.76265 70.2632 4.08904C70.5498 3.39617 70.9319 2.81879 71.4096 2.35688C71.8872 1.89497 72.4987 1.66402 73.2438 1.66402C74.1227 1.66402 74.8488 1.90459 75.422 2.38575C75.9952 2.8669 76.4442 3.46354 76.769 4.17564C77.113 4.88775 77.3423 5.6576 77.4569 6.48519C77.5906 7.31277 77.6575 8.08262 77.6575 8.79473Z" fill="#333333"/>
<path d="M88.2739 17.8886C88.1784 17.7346 88.0351 17.6384 87.844 17.5999C87.653 17.5421 87.4428 17.5036 87.2135 17.4844C87.0224 17.4651 86.8218 17.4363 86.6116 17.3978C86.4206 17.3593 86.2486 17.2823 86.0957 17.1668C85.9429 17.0513 85.8091 16.8878 85.6945 16.676C85.599 16.4451 85.5512 16.1372 85.5512 15.7522C85.5512 14.6359 85.5512 13.5389 85.5512 12.4611C85.5512 11.3641 85.5608 10.2671 85.5799 9.17003C85.599 8.073 85.6085 6.98559 85.6085 5.9078C85.6085 4.83002 85.6085 3.74261 85.6085 2.64557V2.21253C85.6085 1.92384 85.6085 1.64477 85.6085 1.37532C85.6085 1.08663 85.5894 0.807561 85.5512 0.538115C85.5512 0.422638 85.5034 0.384146 85.4079 0.422637C84.4908 0.903793 83.5832 1.43306 82.6852 2.01045C81.8063 2.58783 80.9655 3.21334 80.1631 3.88695C80.1248 3.92544 80.1153 3.97356 80.1344 4.0313C80.1535 4.08904 80.1917 4.10828 80.249 4.08904C80.5165 4.05054 80.7649 3.98318 80.9942 3.88695C81.2235 3.77148 81.4528 3.66562 81.6821 3.56939C81.9304 3.45391 82.1693 3.35768 82.3986 3.2807C82.6278 3.18447 82.8189 3.13635 82.9718 3.13635C83.2011 3.13635 83.4017 3.22296 83.5736 3.39617V15.8966C83.5736 16.2623 83.5163 16.5509 83.4017 16.7627C83.3061 16.9551 83.1628 17.1091 82.9718 17.2246C82.7807 17.3208 82.561 17.3978 82.3126 17.4555C82.0833 17.494 81.8445 17.5229 81.5961 17.5421C81.405 17.5614 81.233 17.5806 81.0802 17.5999C80.9273 17.6191 80.7745 17.648 80.6216 17.6865C80.5643 17.7057 80.5356 17.7538 80.5356 17.8308C80.5548 17.8886 80.593 17.9174 80.6503 17.9174C81.9113 17.9752 83.1628 18.0137 84.4048 18.0329C85.6658 18.0522 86.9269 18.0618 88.188 18.0618L88.2739 17.8886Z" fill="#333333"/>
<path d="M96.5597 17.8886C96.4642 17.7346 96.3209 17.6384 96.1298 17.5999C95.9387 17.5421 95.7285 17.5036 95.4993 17.4844C95.3082 17.4651 95.1076 17.4363 94.8974 17.3978C94.7063 17.3593 94.5344 17.2823 94.3815 17.1668C94.2286 17.0513 94.0949 16.8878 93.9803 16.676C93.8847 16.4451 93.8369 16.1372 93.8369 15.7522C93.8369 14.6359 93.8369 13.5389 93.8369 12.4611C93.8369 11.3641 93.8465 10.2671 93.8656 9.17003C93.8847 8.073 93.8943 6.98559 93.8943 5.9078C93.8943 4.83002 93.8943 3.74261 93.8943 2.64557V2.21253C93.8943 1.92384 93.8943 1.64477 93.8943 1.37532C93.8943 1.08663 93.8752 0.807561 93.8369 0.538115C93.8369 0.422638 93.7892 0.384146 93.6937 0.422637C92.7765 0.903793 91.8689 1.43306 90.9709 2.01045C90.092 2.58783 89.2513 3.21334 88.4488 3.88695C88.4106 3.92544 88.401 3.97356 88.4202 4.0313C88.4393 4.08904 88.4775 4.10828 88.5348 4.08904C88.8023 4.05054 89.0507 3.98318 89.28 3.88695C89.5092 3.77148 89.7385 3.66562 89.9678 3.56939C90.2162 3.45391 90.455 3.35768 90.6843 3.2807C90.9136 3.18447 91.1047 3.13635 91.2575 3.13635C91.4868 3.13635 91.6874 3.22296 91.8594 3.39617V15.8966C91.8594 16.2623 91.8021 16.5509 91.6874 16.7627C91.5919 16.9551 91.4486 17.1091 91.2575 17.2246C91.0665 17.3208 90.8467 17.3978 90.5983 17.4555C90.3691 17.494 90.1302 17.5229 89.8818 17.5421C89.6908 17.5614 89.5188 17.5806 89.3659 17.5999C89.2131 17.6191 89.0602 17.648 88.9074 17.6865C88.8501 17.7057 88.8214 17.7538 88.8214 17.8308C88.8405 17.8886 88.8787 17.9174 88.936 17.9174C90.1971 17.9752 91.4486 18.0137 92.6905 18.0329C93.9516 18.0522 95.2126 18.0618 96.4737 18.0618L96.5597 17.8886Z" fill="#333333"/>
<path d="M104.845 17.8886C104.75 17.7346 104.607 17.6384 104.416 17.5999C104.224 17.5421 104.014 17.5036 103.785 17.4844C103.594 17.4651 103.393 17.4363 103.183 17.3978C102.992 17.3593 102.82 17.2823 102.667 17.1668C102.514 17.0513 102.381 16.8878 102.266 16.676C102.17 16.4451 102.123 16.1372 102.123 15.7522C102.123 14.6359 102.123 13.5389 102.123 12.4611C102.123 11.3641 102.132 10.2671 102.151 9.17003C102.17 8.073 102.18 6.98559 102.18 5.9078C102.18 4.83002 102.18 3.74261 102.18 2.64557V2.21253C102.18 1.92384 102.18 1.64477 102.18 1.37532C102.18 1.08663 102.161 0.807561 102.123 0.538115C102.123 0.422638 102.075 0.384146 101.979 0.422637C101.062 0.903793 100.155 1.43306 99.2567 2.01045C98.3778 2.58783 97.537 3.21334 96.7346 3.88695C96.6963 3.92544 96.6868 3.97356 96.7059 4.0313C96.725 4.08904 96.7632 4.10828 96.8205 4.08904C97.088 4.05054 97.3364 3.98318 97.5657 3.88695C97.795 3.77148 98.0243 3.66562 98.2536 3.56939C98.5019 3.45391 98.7408 3.35768 98.9701 3.2807C99.1993 3.18447 99.3904 3.13635 99.5433 3.13635C99.7726 3.13635 99.9732 3.22296 100.145 3.39617V15.8966C100.145 16.2623 100.088 16.5509 99.9732 16.7627C99.8776 16.9551 99.7343 17.1091 99.5433 17.2246C99.3522 17.3208 99.1325 17.3978 98.8841 17.4555C98.6548 17.494 98.416 17.5229 98.1676 17.5421C97.9765 17.5614 97.8045 17.5806 97.6517 17.5999C97.4988 17.6191 97.346 17.648 97.1931 17.6865C97.1358 17.7057 97.1071 17.7538 97.1071 17.8308C97.1262 17.8886 97.1645 17.9174 97.2218 17.9174C98.4828 17.9752 99.7343 18.0137 100.976 18.0329C102.237 18.0522 103.498 18.0618 104.759 18.0618L104.845 17.8886Z" fill="#333333"/>
</svg>
